<?xml version="1.0" standalone="no"?>
<!DOCTYPE svg PUBLIC "-//W3C//DTD SVG 20010904//EN"
 "http://www.w3.org/TR/2001/REC-SVG-20010904/DTD/svg10.dtd">
<svg version="1.0" xmlns="http://www.w3.org/2000/svg"
 width="579.000000pt" height="371.000000pt" viewBox="0 0 579.000000 371.000000"
 preserveAspectRatio="xMidYMid meet">

<g transform="translate(0.000000,371.000000) scale(0.100000,-0.100000)"
fill="#000000" stroke="none">
<path d="M0 1855 l0 -1855 2895 0 2895 0 0 1855 0 1855 -2895 0 -2895 0 0
-1855z m2470 -45 l0 -480 -710 0 -710 0 0 480 0 480 710 0 710 0 0 -480z m908
226 c4 -21 -14 -37 -35 -29 -14 5 -18 35 -6 47 12 12 38 1 41 -18z m-559 -12
c17 -14 31 -32 31 -39 0 -19 -37 -25 -52 -8 -36 44 -107 34 -129 -19 -10 -24
-9 -35 4 -63 21 -45 67 -56 108 -26 55 41 94 18 46 -27 -91 -86 -239 -4 -212
118 3 16 22 43 41 60 47 41 117 43 163 4z m1421 -68 c0 -85 -2 -98 -23 -122
-32 -37 -98 -38 -134 -1 -14 14 -22 30 -19 36 9 14 46 15 46 1 0 -16 49 -23
65 -10 11 9 15 33 15 81 l0 69 -55 0 c-48 0 -55 2 -55 20 0 18 7 20 80 20 l80
0 0 -94z m182 77 c10 -9 18 -22 18 -28 0 -18 -38 -26 -44 -9 -7 19 -42 18 -50
-1 -3 -9 9 -31 31 -56 30 -33 38 -38 45 -25 10 18 34 21 43 7 3 -5 0 -21 -7
-35 -10 -23 -8 -29 12 -51 l23 -25 -31 0 c-17 0 -33 4 -36 9 -3 5 -22 3 -43
-4 -82 -28 -143 38 -96 105 10 14 16 39 14 61 -1 23 4 42 14 53 21 21 83 21
107 -1z m241 6 c24 -11 47 -47 47 -74 0 -7 -11 -27 -25 -43 l-24 -29 24 -36
c31 -45 31 -47 0 -47 -18 0 -32 11 -51 40 -19 28 -34 40 -50 40 -21 0 -24 -5
-24 -40 0 -36 -2 -40 -25 -40 l-25 0 0 120 0 120 65 0 c35 0 75 -5 88 -11z
m-1403 -29 c0 -25 4 -30 25 -30 18 0 25 -5 25 -20 0 -15 -7 -20 -25 -20 -23 0
-25 -4 -25 -44 0 -39 3 -45 22 -48 13 -2 24 -11 26 -20 3 -14 -4 -18 -32 -18
-48 0 -66 21 -66 81 l0 49 -35 0 c-41 0 -55 -23 -55 -91 0 -32 -3 -39 -20 -39
-18 0 -20 7 -20 85 l0 85 33 0 c105 1 97 -2 97 30 0 25 4 30 25 30 21 0 25 -5
25 -30z m-239 -49 c49 -50 37 -121 -27 -147 -95 -40 -172 84 -93 150 41 35 83
34 120 -3z m539 9 c16 -16 20 -33 20 -90 0 -63 -2 -70 -20 -70 -17 0 -20 7
-20 46 0 55 -14 84 -40 84 -26 0 -40 -29 -40 -84 0 -42 -2 -46 -25 -46 -25 0
-25 1 -25 85 l0 86 35 -3 c19 -1 37 1 41 5 14 14 54 7 74 -13z m198 10 l32 1
0 -86 0 -85 -42 0 c-24 -1 -53 -1 -66 -1 -39 -1 -72 38 -72 86 0 61 40 101 90
90 14 -3 40 -6 58 -5z m180 -6 c12 -8 22 -19 22 -23 0 -14 -33 -22 -44 -11
-14 14 -49 13 -44 -2 2 -6 23 -18 46 -26 51 -17 66 -52 35 -84 -32 -32 -113
-25 -133 12 -14 26 22 37 51 16 21 -14 49 -12 49 4 0 5 -17 14 -37 21 -50 16
-63 27 -63 55 0 27 34 54 70 54 14 0 36 -7 48 -16z m-558 -79 c0 -84 0 -85
-25 -85 -25 0 -25 1 -25 85 0 84 0 85 25 85 25 0 25 -1 25 -85z m-240 -180 c0
-8 -6 -15 -12 -15 -9 0 -8 -4 2 -11 11 -8 12 -12 3 -16 -7 -2 -13 -20 -13 -39
0 -22 -5 -34 -14 -34 -20 0 -27 79 -9 108 15 25 43 30 43 7z m710 -8 c0 -18 5
-23 28 -22 25 0 27 -3 30 -42 2 -26 -1 -43 -7 -43 -6 0 -11 11 -11 24 0 25
-22 51 -33 39 -4 -3 -7 -19 -7 -35 0 -18 -5 -28 -15 -28 -12 0 -15 13 -15 58
0 32 3 62 7 65 13 14 23 7 23 -16z m-1130 3 c0 -5 -9 -10 -20 -10 -17 0 -20
-7 -20 -50 0 -38 -4 -50 -15 -50 -11 0 -15 12 -15 50 0 43 -3 50 -20 50 -11 0
-20 5 -20 10 0 6 25 10 55 10 30 0 55 -4 55 -10z m934 -12 c13 -14 15 -23 8
-26 -15 -5 -16 -52 -2 -52 6 0 10 -5 10 -11 0 -6 -10 -9 -22 -7 -18 2 -24 12
-29 42 -7 40 -2 76 10 76 4 0 15 -10 25 -22z m-874 -18 c0 -4 -7 -13 -15 -20
-8 -7 -15 -23 -15 -36 0 -13 -4 -24 -10 -24 -5 0 -10 20 -10 44 0 40 2 44 25
44 14 0 25 -4 25 -8z m100 -35 l0 -45 -40 0 c-43 0 -65 24 -53 57 9 25 23 33
61 33 31 0 32 -1 32 -45z m98 -2 c2 -26 -1 -43 -7 -43 -6 0 -11 13 -11 28 0
34 -7 43 -26 35 -8 -3 -14 -18 -14 -34 0 -16 -4 -29 -10 -29 -5 0 -10 20 -10
44 l0 44 38 -1 c36 -2 37 -3 40 -44z m90 28 c4 -11 -2 -12 -24 -7 l-29 6 28
-16 c17 -9 27 -22 25 -32 -4 -23 -51 -27 -69 -6 -12 15 -11 16 21 11 34 -6 34
-6 8 5 -27 11 -36 36 -21 52 12 11 56 2 61 -13z m160 7 c28 -28 7 -78 -33 -78
-27 0 -45 18 -45 45 0 27 18 45 45 45 12 0 26 -5 33 -12z m223 -10 c11 -20 11
-20 25 1 11 14 25 20 49 19 34 -1 35 -2 35 -45 l0 -43 -40 0 c-33 0 -42 4 -50
23 l-9 22 0 -22 c-1 -36 -29 -28 -33 10 -2 17 -7 32 -13 32 -5 0 -11 -15 -13
-32 -2 -20 -9 -33 -17 -33 -8 0 -15 13 -17 33 -2 17 -7 32 -13 32 -5 0 -11
-15 -13 -32 -5 -47 -32 -44 -32 3 0 45 -24 42 -28 -4 -5 -52 -32 -41 -32 13
l0 45 95 -1 c84 -2 97 -4 106 -21z m259 -13 c0 -24 5 -35 15 -35 10 0 15 11
15 35 0 24 5 35 15 35 11 0 15 -12 15 -45 l0 -45 -39 0 c-42 0 -51 11 -51 61
0 19 5 29 15 29 10 0 15 -11 15 -35z m295 18 c16 -16 18 -16 27 0 6 12 22 17
48 17 l40 0 0 -49 c0 -71 -46 -107 -81 -64 -13 15 -11 16 13 10 15 -4 30 -3
33 3 3 5 -3 10 -14 10 -11 0 -27 8 -36 17 -16 16 -18 16 -27 0 -10 -20 -58
-23 -76 -5 -17 17 -15 44 4 62 20 21 48 20 69 -1z m215 -30 c0 -42 -1 -43 -33
-43 -38 0 -57 15 -57 45 0 30 19 44 57 43 32 -1 33 -2 33 -45z m70 38 c0 -6
-4 -13 -10 -16 -5 -3 -10 -19 -10 -36 0 -19 -5 -29 -15 -29 -11 0 -15 12 -15
45 0 41 2 45 25 45 14 0 25 -4 25 -9z"/>
<path d="M1070 1810 l0 -450 685 0 685 0 0 450 0 450 -685 0 -685 0 0 -450z
m865 278 c28 -14 58 -35 69 -46 18 -21 18 -22 -19 -67 -21 -25 -41 -44 -44
-42 -3 2 -28 13 -55 26 -92 43 -188 12 -227 -73 -25 -55 -24 -102 4 -156 43
-86 155 -114 243 -59 l35 21 31 -28 c48 -46 53 -62 28 -89 -12 -13 -44 -33
-71 -44 -73 -32 -130 -36 -202 -17 -138 37 -228 152 -230 294 -1 62 3 79 34
139 77 152 258 215 404 141z"/>
<path d="M4324 1895 c-10 -24 4 -45 29 -45 35 0 40 11 15 37 -25 27 -36 29
-44 8z"/>
<path d="M4560 1970 c0 -31 0 -31 48 -28 43 3 47 5 47 28 0 23 -4 25 -47 28
-48 3 -48 3 -48 -28z"/>
<path d="M2920 1920 c-22 -41 13 -80 59 -65 23 7 31 33 20 63 -11 30 -64 31
-79 2z"/>
<path d="M3659 1919 c-8 -16 -8 -28 0 -46 23 -50 100 -7 80 45 -11 30 -64 31
-80 1z"/>
<path d="M2814 1656 c-7 -19 3 -36 22 -36 10 0 14 8 12 22 -4 26 -26 36 -34
14z"/>
<path d="M3181 1660 c-17 -10 -7 -40 13 -40 7 0 16 6 19 14 8 19 -15 37 -32
26z"/>
<path d="M3501 1660 c-17 -10 -7 -40 13 -40 7 0 16 6 19 14 8 19 -15 37 -32
26z"/>
<path d="M3953 1654 c-8 -21 13 -42 28 -27 13 13 5 43 -11 43 -6 0 -13 -7 -17
-16z"/>
<path d="M4053 1654 c-8 -21 13 -42 28 -27 13 13 5 43 -11 43 -6 0 -13 -7 -17
-16z"/>
<path d="M4161 1657 c-14 -17 3 -41 23 -34 9 4 16 13 16 21 0 19 -26 28 -39
13z"/>
</g>
</svg>
