<?xml version="1.0" standalone="no"?>
<!DOCTYPE svg PUBLIC "-//W3C//DTD SVG 20010904//EN"
 "http://www.w3.org/TR/2001/REC-SVG-20010904/DTD/svg10.dtd">
<svg version="1.0" xmlns="http://www.w3.org/2000/svg"
 width="664.000000pt" height="444.000000pt" viewBox="0 0 664.000000 444.000000"
 preserveAspectRatio="xMidYMid meet">

<g transform="translate(0.000000,444.000000) scale(0.100000,-0.100000)"
fill="#000000" stroke="none">
<path d="M0 2220 l0 -2220 3320 0 3320 0 0 2220 0 2220 -3320 0 -3320 0 0
-2220z m3375 1278 c35 -41 30 -87 -15 -153 -36 -53 -44 -51 -92 24 -35 56 -35
91 -2 130 35 42 73 42 109 -1z m281 -77 c63 -38 69 -135 12 -191 -35 -36 -125
-90 -149 -90 -37 0 -53 177 -21 232 16 29 80 67 112 68 8 0 29 -9 46 -19z
m-541 -5 c65 -28 90 -104 64 -201 -17 -65 -31 -95 -44 -95 -22 0 -129 87 -149
120 -45 78 -1 186 77 189 10 1 33 -5 52 -13z m-276 -102 c30 -21 51 -73 51
-125 l0 -42 -50 6 c-109 13 -161 85 -109 151 24 31 72 35 108 10z m1091 -11
c53 -68 -22 -153 -136 -153 l-31 0 8 54 c4 29 12 63 18 74 30 57 105 70 141
25z m-553 -63 c47 -28 66 -72 61 -137 -4 -43 -14 -66 -52 -123 -27 -39 -53
-73 -59 -77 -13 -8 -58 47 -97 118 -50 93 -37 172 36 220 37 24 71 24 111 -1z
m-299 -139 c38 -26 69 -104 78 -195 l7 -66 -34 0 c-46 0 -132 24 -172 47 -90
53 -105 184 -26 230 34 19 110 11 147 -16z m652 4 c11 -10 25 -35 32 -56 16
-54 -11 -121 -61 -154 -39 -26 -137 -55 -185 -55 l-29 0 6 76 c10 141 74 220
170 211 26 -2 56 -12 67 -22z m-956 -46 c42 -36 101 -148 86 -163 -5 -5 -47
-11 -92 -14 -75 -3 -86 -2 -118 20 -66 45 -72 140 -11 173 45 25 96 19 135
-16z m1272 0 c45 -42 24 -133 -38 -165 -25 -13 -50 -15 -116 -11 -46 3 -86 7
-89 10 -18 19 62 158 106 182 37 21 106 13 137 -16z m-1434 -230 c27 -27 48
-56 45 -62 -6 -19 -108 -49 -144 -42 -39 7 -73 47 -73 86 0 37 41 69 88 69 30
0 44 -8 84 -51z m1562 20 c36 -28 35 -72 -3 -110 -21 -21 -39 -29 -63 -28 -40
0 -120 30 -125 46 -2 6 18 35 45 62 40 43 54 51 84 51 21 0 46 -9 62 -21z
m-787 -24 c46 -31 58 -63 55 -150 -2 -62 3 -105 23 -179 44 -171 32 -334 -30
-422 -19 -26 -40 -69 -46 -96 -7 -26 -16 -48 -20 -48 -3 0 -12 13 -19 30 -20
48 -36 55 -50 20 -23 -54 -36 -55 -50 -3 -6 27 -25 68 -41 93 -66 99 -78 246
-34 415 20 74 25 119 24 187 -2 75 1 93 18 116 42 58 113 74 170 37z m-460
-12 c37 -17 102 -92 134 -154 l19 -38 -52 -16 c-132 -41 -227 -27 -267 39 -42
70 -34 122 28 163 40 27 89 29 138 6z m919 1 c19 -9 41 -26 49 -38 35 -49 6
-137 -57 -177 -28 -17 -44 -20 -103 -15 -70 5 -165 31 -165 45 0 5 17 34 39
67 81 124 151 159 237 118z m-1155 -182 c24 -16 59 -44 78 -62 l33 -34 -23
-19 c-107 -86 -223 -92 -275 -13 -28 44 -21 85 19 123 49 44 103 46 168 5z
m1453 -6 c45 -41 48 -84 11 -132 -32 -42 -84 -58 -140 -43 -50 13 -145 69
-145 86 0 14 77 81 123 106 17 9 51 17 74 17 34 0 48 -6 77 -34z m-1119 -167
c36 -18 68 -36 71 -41 17 -26 -129 -152 -190 -163 -41 -8 -110 19 -136 53 -41
51 -14 142 53 176 46 24 122 15 202 -25z m791 25 c100 -47 108 -166 14 -214
-47 -24 -78 -25 -126 -5 -41 17 -154 126 -154 149 0 18 43 42 120 67 69 23
103 23 146 3z m-2136 -1474 c0 -13 -7 -20 -20 -20 -18 0 -20 -7 -20 -70 0 -63
-2 -70 -20 -70 -18 0 -20 7 -20 70 0 63 -2 70 -20 70 -13 0 -20 7 -20 20 0 18
7 20 60 20 53 0 60 -2 60 -20z m148 4 c26 -18 29 -50 6 -75 -15 -17 -14 -20 5
-48 26 -36 26 -41 2 -41 -13 0 -28 15 -43 41 l-23 42 -5 -39 c-3 -27 -11 -40
-22 -42 -16 -3 -18 6 -18 87 l0 91 38 0 c21 0 48 -7 60 -16z m180 -1 c5 -10
21 -51 36 -90 24 -69 25 -73 6 -73 -10 0 -22 9 -25 20 -5 15 -15 20 -40 20
-24 0 -38 -6 -45 -20 -11 -20 -40 -28 -40 -11 0 5 6 24 13 42 8 19 22 55 31
82 19 50 47 63 64 30z m189 -45 l38 -62 3 63 c3 52 6 62 20 59 14 -3 17 -16
17 -88 0 -79 -1 -85 -22 -88 -17 -2 -28 9 -55 53 l-33 56 -5 -53 c-4 -40 -9
-54 -22 -56 -16 -3 -18 6 -18 87 0 83 2 91 19 91 13 0 32 -20 58 -62z m230 56
c12 -3 24 -13 28 -22 9 -23 -17 -34 -37 -15 -19 17 -52 10 -46 -9 3 -7 19 -17
37 -22 18 -5 40 -20 48 -33 35 -53 -47 -98 -105 -57 -26 18 -28 30 -6 38 10 4
22 0 28 -10 14 -18 47 -16 53 3 3 7 -13 20 -37 29 -48 19 -66 45 -50 73 15 29
43 37 87 25z m198 -14 c0 -10 -12 -16 -32 -18 -40 -4 -44 -29 -6 -34 17 -2 29
-10 31 -20 3 -14 -3 -18 -27 -18 -29 0 -31 -3 -31 -35 0 -28 -4 -35 -20 -35
-18 0 -20 7 -20 83 0 46 3 87 7 91 4 4 28 6 53 4 32 -2 45 -7 45 -18z m192 -4
c39 -34 39 -98 0 -132 -62 -53 -147 -15 -147 65 0 76 89 117 147 67z m177 14
c30 -11 36 -53 11 -80 -13 -14 -12 -20 11 -53 l25 -37 -23 0 c-16 0 -30 12
-48 43 l-25 42 -3 -43 c-3 -34 -7 -43 -20 -40 -14 3 -18 17 -20 77 -2 41 -1
80 2 88 6 15 54 17 90 3z m172 -42 l17 -52 23 52 c17 38 28 52 43 52 27 0 27
-2 35 -97 7 -79 6 -83 -13 -83 -17 0 -21 6 -22 38 -1 72 -13 78 -32 18 -10
-31 -24 -56 -31 -56 -6 0 -21 28 -32 63 l-21 62 -7 -62 c-7 -52 -11 -63 -27
-63 -17 0 -18 6 -13 78 7 99 9 102 38 102 21 0 27 -8 42 -52z m305 -32 c16
-44 29 -84 29 -88 0 -16 -30 -7 -40 12 -7 14 -21 20 -45 20 -25 0 -35 -5 -40
-20 -3 -11 -15 -20 -25 -20 -18 0 -18 5 11 81 37 101 36 101 61 97 15 -2 27
-23 49 -82z m269 64 c0 -13 -7 -20 -20 -20 -18 0 -20 -7 -20 -70 0 -56 -3 -70
-15 -70 -12 0 -15 14 -15 70 0 63 -2 70 -19 70 -11 0 -23 5 -26 10 -12 20 7
30 61 30 47 0 54 -2 54 -20z m90 -49 c0 -54 3 -70 16 -75 31 -12 44 13 44 80
0 57 2 64 20 64 18 0 20 -7 20 -68 0 -84 -16 -112 -66 -112 -56 0 -74 27 -74
110 0 63 2 70 20 70 18 0 20 -7 20 -69z m290 34 c0 -33 2 -35 35 -35 33 0 35
2 35 35 0 28 4 35 20 35 19 0 20 -7 20 -90 0 -83 -1 -90 -20 -90 -16 0 -20 7
-20 35 0 33 -2 35 -35 35 -33 0 -35 -2 -35 -35 0 -28 -4 -35 -20 -35 -19 0
-20 7 -20 90 0 83 1 90 20 90 16 0 20 -7 20 -35z m299 20 c33 -16 41 -33 41
-81 0 -77 -98 -115 -151 -58 -35 37 -33 98 4 130 32 27 66 30 106 9z m232 -5
c32 -26 9 -44 -29 -24 -37 19 -66 -1 -70 -50 -3 -31 1 -38 23 -48 18 -8 31 -9
43 -2 24 16 26 34 3 34 -12 0 -21 6 -21 15 0 11 11 15 40 15 l40 0 0 -50 c0
-38 -4 -50 -15 -50 -8 0 -15 5 -15 12 0 9 -3 9 -12 0 -21 -21 -77 -14 -103 13
-28 27 -34 90 -12 117 32 41 91 49 128 18z m210 -60 c16 -41 28 -81 28 -87 1
-20 -27 -15 -39 7 -7 14 -21 20 -44 20 -25 0 -35 -5 -39 -20 -3 -12 -14 -20
-26 -20 -20 0 -20 2 10 81 37 101 36 101 62 97 16 -2 27 -21 48 -78z m183 67
c23 -17 24 -67 2 -79 -15 -9 -15 -11 2 -36 34 -49 35 -52 10 -52 -17 0 -29 10
-42 35 -11 19 -23 35 -28 35 -4 0 -8 -16 -8 -35 0 -28 -4 -35 -20 -35 -18 0
-20 7 -20 83 0 46 3 87 7 90 11 12 79 7 97 -6z"/>
<path d="M3292 3478 c-18 -18 -15 -49 9 -87 l21 -34 19 29 c32 49 21 104 -21
104 -9 0 -21 -5 -28 -12z"/>
<path d="M3574 3390 c-35 -14 -54 -50 -53 -100 0 -40 1 -42 10 -20 22 56 63
76 89 45 10 -12 11 -24 2 -53 l-11 -37 29 33 c36 39 39 78 9 116 -21 27 -39
31 -75 16z"/>
<path d="M3019 3358 c-25 -41 -19 -83 17 -118 l25 -25 -10 28 c-14 37 -14 49
2 71 21 28 56 11 78 -37 l19 -42 0 48 c0 40 -5 53 -29 78 -40 40 -75 39 -102
-3z"/>
<path d="M2754 3275 c-11 -28 13 -62 51 -75 20 -7 39 -9 43 -6 3 4 0 26 -8 49
-13 36 -19 42 -48 45 -22 2 -34 -2 -38 -13z"/>
<path d="M3825 3260 c-16 -32 -20 -70 -6 -70 24 0 73 25 82 41 16 32 2 59 -31
59 -22 0 -33 -7 -45 -30z"/>
<path d="M3269 3191 c-33 -33 -39 -88 -14 -131 l14 -25 1 23 c0 36 28 82 50
82 26 0 50 -37 50 -80 l1 -35 16 29 c9 17 16 48 16 70 0 32 -6 45 -32 68 -40
36 -65 35 -102 -1z"/>
<path d="M2940 3070 c-22 -22 -27 -78 -10 -111 6 -10 29 -28 52 -40 l41 -21
-22 27 c-63 81 18 132 84 54 14 -17 25 -25 25 -17 -1 26 -38 96 -61 112 -32
22 -85 20 -109 -4z"/>
<path d="M3599 3075 c-15 -8 -34 -32 -43 -55 -22 -55 -20 -63 8 -35 72 72 144
10 75 -64 -26 -28 -10 -27 32 2 44 29 63 69 55 113 -10 52 -69 71 -127 39z"/>
<path d="M2650 3030 c-11 -11 -20 -25 -20 -30 0 -20 29 -68 45 -74 23 -8 52
-7 40 2 -5 4 -16 15 -24 25 -28 35 31 63 80 36 20 -10 20 -10 3 16 -32 49 -89
60 -124 25z"/>
<path d="M3916 3029 c-14 -11 -31 -30 -38 -42 -11 -22 -10 -22 10 -4 26 24 85
20 90 -6 2 -10 -4 -27 -14 -38 -14 -16 -15 -19 -2 -19 32 0 68 40 68 75 0 56
-63 74 -114 34z"/>
<path d="M2487 2833 c-13 -12 -7 -40 12 -57 15 -14 29 -16 60 -11 48 8 52 25
15 54 -26 20 -74 28 -87 14z"/>
<path d="M4065 2805 c-33 -32 -31 -43 9 -50 47 -9 75 2 82 32 12 47 -50 60
-91 18z"/>
<path d="M3281 2796 c-40 -22 -49 -52 -44 -135 4 -61 0 -96 -21 -175 -46 -174
-30 -345 36 -402 66 -54 152 -18 183 77 23 68 16 262 -10 329 -13 32 -19 77
-20 158 -2 96 -5 117 -21 133 -25 25 -73 32 -103 15z m17 -73 c-4 -22 -22 -20
-26 1 -2 10 3 16 13 16 10 0 15 -7 13 -17z m65 10 c9 -9 -13 -34 -24 -27 -14
8 -11 34 4 34 8 0 17 -3 20 -7z m-17 -69 c-3 -9 -9 -27 -12 -40 -9 -35 -20
-29 -32 16 l-10 40 30 0 c23 0 29 -4 24 -16z"/>
<path d="M2808 2774 c-35 -19 -44 -53 -24 -92 22 -43 54 -62 101 -62 l40 1
-30 13 c-17 7 -36 25 -42 39 -10 21 -9 28 6 41 23 21 70 20 99 0 41 -29 34 -8
-13 35 -49 45 -87 52 -137 25z"/>
<path d="M3714 2765 c-17 -13 -39 -36 -48 -50 l-16 -25 32 20 c77 47 157 -1
96 -57 -13 -11 -30 -23 -38 -26 -8 -3 -1 -6 17 -6 92 -2 151 98 87 148 -37 29
-91 27 -130 -4z"/>
<path d="M2545 2595 c-31 -30 -31 -49 -1 -80 30 -30 64 -39 96 -26 22 8 22 10
5 11 -26 1 -55 23 -55 42 0 24 29 42 66 42 19 0 34 1 34 3 0 1 -13 9 -30 18
-43 22 -87 19 -115 -10z"/>
<path d="M3995 2599 c-27 -19 -28 -20 -6 -15 13 2 40 -1 58 -9 43 -18 41 -43
-5 -66 -31 -16 -31 -17 -10 -23 37 -9 45 -7 77 20 82 68 -25 155 -114 93z"/>
<path d="M2819 2431 c-77 -77 17 -174 119 -122 52 26 62 42 20 29 -38 -11 -85
2 -95 27 -8 22 32 61 70 70 28 6 30 8 12 15 -45 19 -95 11 -126 -19z"/>
<path d="M3700 2451 l-25 -7 30 -8 c78 -19 102 -72 44 -97 -24 -9 -39 -10 -61
-1 -26 9 -28 9 -17 -4 40 -49 121 -55 165 -13 34 31 30 65 -10 105 -35 35 -68
42 -126 25z"/>
<path d="M1770 975 c0 -8 9 -15 20 -15 11 0 20 7 20 15 0 8 -9 15 -20 15 -11
0 -20 -7 -20 -15z"/>
<path d="M1971 956 c-13 -33 -10 -39 17 -34 17 3 17 6 6 33 l-12 30 -11 -29z"/>
<path d="M2722 978 c-17 -17 -15 -64 4 -82 19 -20 34 -20 62 0 40 28 22 94
-26 94 -16 0 -33 -5 -40 -12z"/>
<path d="M2940 975 c0 -11 7 -15 23 -13 12 2 22 8 22 13 0 6 -10 11 -22 13
-16 2 -23 -2 -23 -13z"/>
<path d="M3406 958 c-9 -35 -8 -38 15 -38 16 0 19 4 14 23 -11 35 -22 41 -29
15z"/>
<path d="M4330 969 c-26 -48 15 -98 64 -79 21 8 26 16 26 43 0 18 -5 38 -12
45 -20 20 -66 15 -78 -9z"/>
<path d="M4796 958 c-9 -35 -8 -38 15 -38 16 0 19 4 14 23 -11 35 -22 41 -29
15z"/>
<path d="M4980 976 c0 -11 9 -16 26 -16 31 0 28 23 -4 28 -15 2 -22 -2 -22
-12z"/>
</g>
</svg>
