<?xml version="1.0" standalone="no"?>
<!DOCTYPE svg PUBLIC "-//W3C//DTD SVG 20010904//EN"
 "http://www.w3.org/TR/2001/REC-SVG-20010904/DTD/svg10.dtd">
<svg version="1.0" xmlns="http://www.w3.org/2000/svg"
 width="703.000000pt" height="466.000000pt" viewBox="0 0 703.000000 466.000000"
 preserveAspectRatio="xMidYMid meet">

<g transform="translate(0.000000,466.000000) scale(0.100000,-0.100000)"
fill="#000000" stroke="none">
<path d="M0 2330 l0 -2330 3515 0 3515 0 0 2330 0 2330 -3515 0 -3515 0 0
-2330z m5250 1480 c0 -7 -587 -10 -1740 -10 -1153 0 -1740 3 -1740 10 0 7 587
10 1740 10 1153 0 1740 -3 1740 -10z m-3177 -212 c82 -25 135 -109 111 -177
-11 -30 -50 -47 -88 -37 -22 5 -26 12 -26 40 0 47 -33 86 -74 86 -17 0 -41 -7
-53 -15 -25 -17 -43 -84 -43 -157 0 -120 40 -175 119 -164 25 3 60 15 78 26
19 11 38 20 43 20 4 0 19 -16 31 -37 l23 -36 -30 -24 c-16 -13 -60 -33 -99
-45 -60 -18 -76 -20 -122 -10 -30 6 -67 20 -83 32 -73 52 -111 223 -76 343 19
64 72 132 121 153 38 17 116 18 168 2z m497 -15 c76 -40 112 -107 118 -218 8
-157 -46 -259 -156 -291 -64 -19 -124 -14 -180 15 -48 24 -66 45 -93 106 -27
60 -32 184 -10 256 40 139 190 200 321 132z m1725 -243 l0 -265 -74 0 -74 0
-74 170 c-40 94 -77 178 -81 188 -4 10 -6 -68 -4 -173 l4 -190 -56 0 -56 0 0
265 0 266 71 -3 72 -3 54 -125 c30 -69 67 -155 81 -192 l28 -68 -4 165 c-3 90
-2 175 2 189 7 27 45 46 86 43 l25 -2 0 -265z m903 245 c39 -16 43 -20 37 -44
-3 -14 -13 -36 -20 -48 l-14 -21 -51 19 c-93 35 -160 20 -146 -35 4 -18 24
-31 85 -56 109 -45 153 -90 159 -162 4 -61 -19 -106 -76 -145 -64 -43 -191
-40 -282 7 -36 19 -38 22 -29 47 5 16 16 36 24 47 14 18 15 18 57 -2 69 -32
129 -38 157 -15 18 15 23 26 18 45 -5 20 -28 36 -104 74 -71 36 -104 58 -120
83 -24 36 -29 83 -14 124 14 35 68 85 104 97 46 14 165 6 215 -15z m-2128 -4
c19 -10 46 -33 58 -52 20 -29 23 -44 20 -97 -4 -56 -8 -66 -41 -100 -37 -38
-37 -39 -18 -56 11 -10 28 -41 37 -70 9 -28 24 -63 35 -78 19 -27 19 -27 -3
-42 -12 -9 -39 -16 -60 -16 -44 0 -59 17 -88 106 -24 70 -31 79 -77 89 l-33 7
0 -101 0 -101 -60 0 -60 0 0 265 0 265 128 0 c105 0 133 -3 162 -19z m506 -7
c4 -14 2 -36 -5 -50 -9 -22 -17 -24 -71 -24 l-60 0 0 -215 0 -215 -60 0 -60 0
-2 213 -3 212 -62 3 c-55 3 -62 5 -67 27 -4 14 -4 36 0 50 l6 25 189 0 189 0
6 -26z m184 -239 l0 -266 -62 3 -63 3 -3 263 -2 262 65 0 65 0 0 -265z m995 5
c54 -170 78 -257 71 -262 -6 -4 -29 -8 -52 -8 -48 0 -70 19 -85 74 l-10 37
-86 -3 -86 -3 -17 -50 c-17 -50 -17 -50 -65 -53 -26 -2 -52 1 -57 6 -7 7 140
484 159 515 3 4 36 7 75 5 l71 -3 82 -255z m-1281 -401 c48 -6 122 -21 165
-34 l76 -22 -4 -49 c-4 -60 -35 -145 -61 -169 -18 -17 -23 -16 -107 6 -122 33
-253 33 -304 1 -47 -28 -63 -67 -57 -137 5 -62 31 -98 85 -121 48 -21 580 -20
649 1 27 8 55 15 62 15 27 0 47 -85 43 -177 -3 -70 -83 -123 -185 -123 l-46 0
1 -187 c1 -104 4 -235 8 -293 4 -58 3 -109 -1 -115 -12 -14 -241 -19 -266 -6
-13 7 -23 26 -27 50 l-7 40 -50 -34 c-102 -70 -282 -98 -402 -61 -181 55 -287
235 -256 432 21 130 96 244 195 293 l46 23 -44 28 c-171 108 -194 382 -43 529
107 104 281 141 530 110z m-926 -15 l22 -6 0 -477 c0 -276 -4 -503 -10 -541
-32 -203 -115 -310 -280 -361 -82 -25 -256 -27 -343 -4 -67 17 -167 62 -167
75 0 4 9 37 20 72 16 51 51 116 86 157 2 2 31 -8 65 -24 47 -21 77 -27 131
-27 79 -1 108 14 143 73 19 33 20 55 23 546 2 474 4 512 20 516 26 7 264 8
290 1z m2300 -9 c176 -42 289 -155 322 -323 35 -178 -40 -360 -182 -442 l-49
-27 27 -18 c68 -44 101 -103 169 -297 27 -78 47 -119 76 -151 l38 -44 -28 -27
c-67 -64 -217 -87 -282 -43 -51 34 -71 72 -129 239 -29 84 -63 169 -75 189
-31 49 -78 69 -159 69 l-66 0 0 -254 0 -254 -85 -7 c-46 -4 -118 -4 -160 0
l-75 7 0 693 c0 545 3 694 13 698 6 3 140 6 297 6 218 1 300 -3 348 -14z
m-2032 -1659 c10 -8 15 -18 11 -22 -4 -5 -12 -3 -16 5 -11 16 -56 10 -56 -8 0
-7 16 -18 35 -25 44 -14 54 -50 17 -67 -29 -13 -67 2 -67 28 0 15 1 15 13 -1
15 -21 62 -19 62 3 0 8 -16 20 -35 26 -40 13 -51 42 -24 62 23 17 35 16 60 -1z
m302 -2 c16 -11 22 -25 22 -54 0 -39 -25 -70 -58 -70 -20 0 -62 47 -62 70 0
23 42 70 62 70 8 0 24 -7 36 -16z m1282 -4 c39 -39 12 -120 -40 -120 -29 0
-60 36 -60 70 0 34 31 70 60 70 11 0 29 -9 40 -20z m166 6 c25 -19 12 -31 -15
-14 -32 20 -56 0 -56 -48 0 -36 3 -39 29 -42 16 -2 32 2 37 10 13 20 11 26
-13 31 -17 3 -14 5 10 6 29 1 32 -1 32 -30 0 -23 -4 -30 -15 -26 -8 4 -17 2
-20 -3 -10 -17 -44 -11 -65 10 -38 38 -13 120 38 120 10 0 27 -6 38 -14z
m-2363 -3 c-21 -4 -23 -10 -23 -59 0 -30 -4 -54 -10 -54 -5 0 -10 24 -10 54 0
49 -2 55 -22 59 -13 2 2 4 32 4 30 0 45 -2 33 -4z m163 -58 c1 -52 0 -56 -9
-32 -8 20 -18 27 -39 27 -23 0 -28 -4 -28 -25 0 -14 -4 -25 -10 -25 -6 0 -10
27 -10 61 l0 60 48 -3 47 -3 1 -60z m142 5 c12 -33 17 -60 12 -60 -4 0 -10 7
-14 15 -3 9 -18 15 -36 15 -20 0 -30 -5 -30 -15 0 -8 -4 -15 -10 -15 -5 0 1
27 12 60 12 33 27 60 34 60 7 0 21 -27 32 -60z m122 13 l30 -48 0 48 c0 26 5
47 10 47 6 0 10 -27 10 -60 0 -35 -4 -60 -10 -60 -6 0 -23 20 -38 45 -15 24
-30 45 -34 45 -4 0 -9 -21 -11 -47 -3 -43 -4 -42 -5 15 -1 36 2 62 8 62 5 0
23 -21 40 -47z m318 40 c-30 -3 -38 -9 -38 -24 0 -14 8 -19 33 -21 l32 -1 -32
-4 c-29 -4 -33 -8 -33 -34 0 -16 -4 -29 -10 -29 -6 0 -10 27 -10 60 l0 60 48
-2 c43 -1 44 -2 10 -5z m349 -55 c1 -32 -2 -58 -7 -58 -6 0 -10 11 -10 25 0
21 -5 25 -30 25 -25 0 -30 -4 -30 -25 0 -14 -4 -25 -10 -25 -6 0 -10 27 -10
61 l0 60 48 -3 47 -3 2 -57z m103 6 l17 -49 17 53 c25 73 46 70 46 -8 0 -67
-20 -84 -21 -17 l-1 42 -15 -43 c-8 -24 -20 -41 -26 -39 -6 2 -18 23 -26 48
l-16 44 -6 -50 -6 -50 -1 63 c-2 77 14 80 38 6z m217 -4 c12 -33 17 -60 12
-60 -5 0 -12 7 -15 15 -4 9 -19 15 -35 15 -19 0 -29 -5 -29 -15 0 -8 -4 -15
-10 -15 -13 0 -13 1 11 65 11 30 26 55 32 55 7 0 22 -27 34 -60z m221 53 c-27
-4 -28 -7 -30 -61 l-2 -57 -3 57 c-3 49 -7 57 -26 61 -12 2 3 4 33 4 30 0 43
-2 28 -4z m88 -81 c4 -18 10 -23 32 -20 25 3 27 7 30 56 4 64 22 70 22 7 0
-32 -6 -51 -20 -65 -23 -23 -33 -24 -61 -10 -16 9 -19 21 -17 68 1 36 3 44 5
22 2 -19 6 -45 9 -58z m270 38 c30 0 34 3 34 25 0 14 5 25 10 25 6 0 10 -27
10 -60 0 -33 -4 -60 -10 -60 -5 0 -10 14 -10 31 0 28 -2 30 -32 27 -27 -2 -34
-8 -39 -33 -4 -20 -7 -8 -6 35 0 36 2 53 4 38 4 -24 9 -28 39 -28z m519 13
c23 -55 29 -83 16 -83 -6 0 -11 7 -11 15 0 21 -49 19 -67 -2 -13 -17 -14 -16
-9 8 9 41 36 99 46 99 5 0 17 -17 25 -37z m176 25 c4 -54 3 -108 -3 -108 -4 0
-8 10 -10 23 -2 17 -11 23 -35 25 -28 3 -32 0 -36 -25 -2 -15 -5 0 -6 35 l-1
62 45 0 c29 0 45 -4 46 -12z m359 -318 c0 -7 -587 -10 -1740 -10 -1153 0
-1740 3 -1740 10 0 7 587 10 1740 10 1153 0 1740 -3 1740 -10z"/>
<path d="M2405 3494 c-57 -57 -57 -261 0 -311 38 -34 87 -31 119 7 32 38 40
80 34 181 -6 104 -25 133 -90 137 -33 2 -50 -2 -63 -14z"/>
<path d="M2900 3435 l0 -75 29 0 c69 0 111 41 97 94 -10 40 -33 56 -82 56
l-44 0 0 -75z"/>
<path d="M4581 3440 c-7 -25 -19 -68 -27 -97 -7 -28 -14 -54 -14 -57 0 -3 25
-6 55 -6 30 0 55 1 55 3 0 1 -13 47 -29 102 l-28 100 -12 -45z"/>
<path d="M3252 2115 c-94 -29 -132 -83 -132 -187 0 -72 20 -121 63 -152 47
-35 145 -29 230 12 l67 33 0 155 0 154 -92 -1 c-51 0 -112 -6 -136 -14z"/>
<path d="M4510 2490 l0 -203 106 7 c160 10 205 38 226 137 21 101 -10 191 -79
232 -24 13 -61 20 -143 24 l-110 6 0 -203z"/>
<path d="M3052 1238 c-7 -7 -12 -24 -12 -38 0 -52 61 -71 82 -25 23 51 -32
101 -70 63z"/>
<path d="M4324 1225 c-15 -23 -15 -27 0 -50 36 -54 100 -12 76 50 -7 17 -17
25 -35 25 -15 0 -31 -9 -41 -25z"/>
<path d="M2290 1225 c0 -27 18 -32 50 -15 27 15 14 40 -21 40 -24 0 -29 -4
-29 -25z"/>
<path d="M2466 1225 c-10 -26 -7 -35 9 -35 17 0 19 18 6 38 -7 11 -10 10 -15
-3z"/>
<path d="M3220 1225 c0 -15 6 -25 14 -25 28 0 46 12 46 31 0 14 -7 19 -30 19
-25 0 -30 -4 -30 -25z"/>
<path d="M3572 1220 c-7 -19 -6 -26 5 -28 21 -5 25 2 14 29 l-9 24 -10 -25z"/>
<path d="M4676 1214 c-9 -23 -8 -24 13 -24 14 0 18 5 14 20 -6 24 -19 26 -27
4z"/>
<path d="M4812 1228 c3 -25 33 -34 57 -19 23 15 5 41 -29 41 -27 0 -31 -3 -28
-22z"/>
</g>
</svg>
